<?xml version="1.0" standalone="no"?><!DOCTYPE svg PUBLIC "-//W3C//DTD SVG 1.1//EN" "http://www.w3.org/Graphics/SVG/1.1/DTD/svg11.dtd"><svg t="1523327366302" class="icon" style="" viewBox="0 0 1024 1024" version="1.1" xmlns="http://www.w3.org/2000/svg" p-id="2204" xmlns:xlink="http://www.w3.org/1999/xlink" width="16" height="16"><defs><style type="text/css"></style></defs><path d="M803.84 568.32l112.64-261.12c5.12-15.36 5.12-25.6-5.12-40.96-5.12-10.24-20.48-15.36-30.72-15.36h-537.6l-10.24-40.96c-5.12-30.72-35.84-51.2-66.56-51.2h-138.24c-15.36 0-25.6 10.24-25.6 25.6s10.24 25.6 25.6 25.6h138.24c5.12 0 15.36 5.12 15.36 10.24l102.4 465.92c-35.84 15.36-56.32 46.08-56.32 81.92 0 51.2 40.96 92.16 92.16 92.16s92.16-40.96 92.16-92.16c0-10.24 0-20.48-5.12-30.72h184.32c-5.12 10.24-5.12 20.48-5.12 30.72 0 51.2 40.96 92.16 92.16 92.16s92.16-40.96 92.16-92.16-40.96-92.16-92.16-92.16h-327.68l-20.48-87.04h332.8c10.24 10.24 30.72 0 40.96-20.48z m-40.96 174.08s5.12-5.12 15.36 0c15.36 0 30.72 15.36 30.72 35.84 0 20.48-15.36 35.84-35.84 35.84-20.48 0-35.84-15.36-35.84-35.84 0-20.48 10.24-30.72 25.6-35.84z m-332.8 0c15.36 5.12 25.6 20.48 25.6 30.72 0 20.48-15.36 35.84-35.84 35.84-20.48 0-35.84-15.36-35.84-35.84 0-15.36 15.36-30.72 30.72-35.84 5.12 5.12 15.36 5.12 15.36 5.12z m-20.48-199.68l-51.2-240.64h501.76l-102.4 240.64h-348.16z" p-id="2205" fill="#cc3341"></path></svg>